<mxfile host="app.diagrams.net" modified="2023-06-07T00:48:53.284Z" agent="Mozilla/5.0 (Windows NT 10.0; Win64; x64) AppleWebKit/537.36 (KHTML, like Gecko) Chrome/113.0.0.0 Safari/537.36" etag="BGKJcFKyFlK81SjuiYpd" version="21.3.6" type="device">
  <diagram name="페이지-1" id="E59RkZwr2_92BVdgSLfV">
    <mxGraphModel dx="1195" dy="630" grid="1" gridSize="10" guides="1" tooltips="1" connect="1" arrows="1" fold="1" page="1" pageScale="1" pageWidth="4681" pageHeight="3300" math="0" shadow="0">
      <root>
        <mxCell id="0" />
        <mxCell id="1" parent="0" />
        <mxCell id="xt3BcgPEip2iIFWgLOgI-7" style="edgeStyle=orthogonalEdgeStyle;rounded=0;orthogonalLoop=1;jettySize=auto;html=1;entryX=0;entryY=0.5;entryDx=0;entryDy=0;" edge="1" parent="1" source="xt3BcgPEip2iIFWgLOgI-1" target="xt3BcgPEip2iIFWgLOgI-3">
          <mxGeometry relative="1" as="geometry" />
        </mxCell>
        <mxCell id="xt3BcgPEip2iIFWgLOgI-1" value="관리자" style="shape=umlActor;verticalLabelPosition=bottom;verticalAlign=top;html=1;outlineConnect=0;" vertex="1" parent="1">
          <mxGeometry x="80" y="225" width="70" height="150" as="geometry" />
        </mxCell>
        <mxCell id="xt3BcgPEip2iIFWgLOgI-8" style="edgeStyle=orthogonalEdgeStyle;rounded=0;orthogonalLoop=1;jettySize=auto;html=1;entryX=0;entryY=0.5;entryDx=0;entryDy=0;" edge="1" parent="1" source="xt3BcgPEip2iIFWgLOgI-3" target="xt3BcgPEip2iIFWgLOgI-4">
          <mxGeometry relative="1" as="geometry" />
        </mxCell>
        <mxCell id="xt3BcgPEip2iIFWgLOgI-9" style="edgeStyle=orthogonalEdgeStyle;rounded=0;orthogonalLoop=1;jettySize=auto;html=1;entryX=0;entryY=0.5;entryDx=0;entryDy=0;" edge="1" parent="1" source="xt3BcgPEip2iIFWgLOgI-3" target="xt3BcgPEip2iIFWgLOgI-5">
          <mxGeometry relative="1" as="geometry" />
        </mxCell>
        <mxCell id="xt3BcgPEip2iIFWgLOgI-10" style="edgeStyle=orthogonalEdgeStyle;rounded=0;orthogonalLoop=1;jettySize=auto;html=1;entryX=0;entryY=0.5;entryDx=0;entryDy=0;" edge="1" parent="1" source="xt3BcgPEip2iIFWgLOgI-3" target="xt3BcgPEip2iIFWgLOgI-6">
          <mxGeometry relative="1" as="geometry" />
        </mxCell>
        <mxCell id="xt3BcgPEip2iIFWgLOgI-3" value="거래리스트 보기" style="ellipse;whiteSpace=wrap;html=1;" vertex="1" parent="1">
          <mxGeometry x="230" y="260" width="120" height="80" as="geometry" />
        </mxCell>
        <mxCell id="xt3BcgPEip2iIFWgLOgI-13" style="edgeStyle=orthogonalEdgeStyle;rounded=0;orthogonalLoop=1;jettySize=auto;html=1;entryX=0;entryY=0.5;entryDx=0;entryDy=0;entryPerimeter=0;" edge="1" parent="1" source="xt3BcgPEip2iIFWgLOgI-4" target="xt3BcgPEip2iIFWgLOgI-11">
          <mxGeometry relative="1" as="geometry" />
        </mxCell>
        <mxCell id="xt3BcgPEip2iIFWgLOgI-4" value="거래처 추가" style="ellipse;whiteSpace=wrap;html=1;" vertex="1" parent="1">
          <mxGeometry x="410" y="160" width="120" height="80" as="geometry" />
        </mxCell>
        <mxCell id="xt3BcgPEip2iIFWgLOgI-12" style="edgeStyle=orthogonalEdgeStyle;rounded=0;orthogonalLoop=1;jettySize=auto;html=1;entryX=0;entryY=0.5;entryDx=0;entryDy=0;entryPerimeter=0;" edge="1" parent="1" source="xt3BcgPEip2iIFWgLOgI-5" target="xt3BcgPEip2iIFWgLOgI-11">
          <mxGeometry relative="1" as="geometry" />
        </mxCell>
        <mxCell id="xt3BcgPEip2iIFWgLOgI-5" value="거래처 상세보기" style="ellipse;whiteSpace=wrap;html=1;" vertex="1" parent="1">
          <mxGeometry x="410" y="260" width="120" height="80" as="geometry" />
        </mxCell>
        <mxCell id="xt3BcgPEip2iIFWgLOgI-14" style="edgeStyle=orthogonalEdgeStyle;rounded=0;orthogonalLoop=1;jettySize=auto;html=1;entryX=0;entryY=0.5;entryDx=0;entryDy=0;entryPerimeter=0;" edge="1" parent="1" source="xt3BcgPEip2iIFWgLOgI-6" target="xt3BcgPEip2iIFWgLOgI-11">
          <mxGeometry relative="1" as="geometry" />
        </mxCell>
        <mxCell id="xt3BcgPEip2iIFWgLOgI-6" value="거래처 수정" style="ellipse;whiteSpace=wrap;html=1;" vertex="1" parent="1">
          <mxGeometry x="410" y="360" width="120" height="80" as="geometry" />
        </mxCell>
        <mxCell id="xt3BcgPEip2iIFWgLOgI-11" value="거래처 정보 Table" style="shape=cylinder3;whiteSpace=wrap;html=1;boundedLbl=1;backgroundOutline=1;size=15;" vertex="1" parent="1">
          <mxGeometry x="660" y="215" width="140" height="170" as="geometry" />
        </mxCell>
      </root>
    </mxGraphModel>
  </diagram>
</mxfile>
